<mxfile host="app.diagrams.net" modified="2023-12-29T12:57:53.091Z" agent="Mozilla/5.0 (Windows NT 10.0; Win64; x64) AppleWebKit/537.36 (KHTML, like Gecko) Chrome/120.0.0.0 Safari/537.36 Edg/120.0.0.0" etag="H04eUySrbcyr7bHb1XBk" version="22.1.16" type="github">
  <diagram id="6a731a19-8d31-9384-78a2-239565b7b9f0" name="Page-1">
    <mxGraphModel dx="2026" dy="1938" grid="1" gridSize="10" guides="1" tooltips="1" connect="1" arrows="1" fold="1" page="1" pageScale="1" pageWidth="1169" pageHeight="827" background="none" math="0" shadow="0">
      <root>
        <mxCell id="0" />
        <mxCell id="1" parent="0" />
        <mxCell id="1350" value="心理学家" style="ellipse;whiteSpace=wrap;html=1;shadow=0;fontFamily=Helvetica;fontSize=20;fontColor=#FFFFFF;align=center;strokeWidth=3;fillColor=#1699D3;strokeColor=none;" parent="1" vertex="1">
          <mxGeometry x="613.5" y="395" width="120" height="120" as="geometry" />
        </mxCell>
        <mxCell id="1351" value="心理学理论" style="ellipse;whiteSpace=wrap;html=1;shadow=0;fontFamily=Helvetica;fontSize=20;fontColor=#FFFFFF;align=center;strokeWidth=3;fillColor=#F08705;strokeColor=none;gradientColor=none;" parent="1" vertex="1">
          <mxGeometry x="1070" y="340" width="120" height="120" as="geometry" />
        </mxCell>
        <mxCell id="1352" value="生物学" style="ellipse;whiteSpace=wrap;html=1;shadow=0;fontFamily=Helvetica;fontSize=20;fontColor=#FFFFFF;align=center;strokeWidth=3;fillColor=#E85642;strokeColor=none;" parent="1" vertex="1">
          <mxGeometry x="1500" y="430" width="120" height="120" as="geometry" />
        </mxCell>
        <mxCell id="1359" style="endArrow=none;strokeWidth=6;strokeColor=#1699D3;html=1;" parent="1" source="1515" target="1350" edge="1">
          <mxGeometry relative="1" as="geometry" />
        </mxCell>
        <mxCell id="1360" style="endArrow=none;strokeWidth=6;strokeColor=#f08705;html=1;" parent="1" source="1515" target="1351" edge="1">
          <mxGeometry relative="1" as="geometry" />
        </mxCell>
        <mxCell id="1361" style="endArrow=none;strokeWidth=6;strokeColor=#E85642;html=1;" parent="1" source="1515" target="1352" edge="1">
          <mxGeometry relative="1" as="geometry" />
        </mxCell>
        <mxCell id="acqs4JBvhIZbfSe7umoF-1547" value="" style="edgeStyle=orthogonalEdgeStyle;rounded=0;orthogonalLoop=1;jettySize=auto;html=1;" edge="1" parent="1" source="1372" target="acqs4JBvhIZbfSe7umoF-1546">
          <mxGeometry relative="1" as="geometry" />
        </mxCell>
        <mxCell id="1372" value="弗洛伊德" style="rounded=1;fillColor=#647687;strokeColor=#314354;strokeWidth=3;shadow=0;html=1;fontColor=#ffffff;" parent="1" vertex="1">
          <mxGeometry x="608.5" y="613.5" width="130" height="40" as="geometry" />
        </mxCell>
        <mxCell id="acqs4JBvhIZbfSe7umoF-1543" value="" style="edgeStyle=orthogonalEdgeStyle;rounded=0;orthogonalLoop=1;jettySize=auto;html=1;" edge="1" parent="1" source="1373" target="acqs4JBvhIZbfSe7umoF-1542">
          <mxGeometry relative="1" as="geometry" />
        </mxCell>
        <mxCell id="1373" value="&lt;font style=&quot;font-size: 16px;&quot;&gt;&lt;b&gt;阿德勒&lt;/b&gt;&lt;/font&gt;" style="rounded=1;fillColor=#647687;strokeColor=#314354;strokeWidth=3;shadow=0;html=1;fontColor=#ffffff;" parent="1" vertex="1">
          <mxGeometry x="340" y="437" width="130" height="40" as="geometry" />
        </mxCell>
        <mxCell id="acqs4JBvhIZbfSe7umoF-1552" value="" style="edgeStyle=orthogonalEdgeStyle;rounded=0;orthogonalLoop=1;jettySize=auto;html=1;" edge="1" parent="1" source="1374" target="acqs4JBvhIZbfSe7umoF-1551">
          <mxGeometry relative="1" as="geometry" />
        </mxCell>
        <mxCell id="acqs4JBvhIZbfSe7umoF-1590" value="" style="edgeStyle=orthogonalEdgeStyle;rounded=0;orthogonalLoop=1;jettySize=auto;html=1;startArrow=classic;startFill=1;dashed=1;" edge="1" parent="1" source="1374" target="acqs4JBvhIZbfSe7umoF-1589">
          <mxGeometry relative="1" as="geometry" />
        </mxCell>
        <mxCell id="1374" value="&lt;font style=&quot;font-size: 16px;&quot;&gt;&lt;b&gt;马丁·塞利格曼&lt;/b&gt;&lt;/font&gt;" style="rounded=1;fillColor=#008a00;strokeColor=#005700;strokeWidth=3;shadow=0;html=1;fontColor=#ffffff;" parent="1" vertex="1">
          <mxGeometry x="608.5" y="263.5" width="130" height="40" as="geometry" />
        </mxCell>
        <mxCell id="1384" value="" style="edgeStyle=none;endArrow=none;strokeWidth=3;strokeColor=#64BBE2;html=1;" parent="1" source="1350" target="1372" edge="1">
          <mxGeometry x="-221.5" y="56.5" width="100" height="100" as="geometry">
            <mxPoint x="-131.5" y="280" as="sourcePoint" />
            <mxPoint x="-31.5" y="180" as="targetPoint" />
          </mxGeometry>
        </mxCell>
        <mxCell id="1385" value="" style="edgeStyle=none;endArrow=none;strokeWidth=3;strokeColor=#64BBE2;html=1;" parent="1" source="1350" target="1373" edge="1">
          <mxGeometry x="-221.5" y="56.5" width="100" height="100" as="geometry">
            <mxPoint x="-131.5" y="280" as="sourcePoint" />
            <mxPoint x="-31.5" y="180" as="targetPoint" />
          </mxGeometry>
        </mxCell>
        <mxCell id="1386" value="" style="edgeStyle=none;endArrow=none;strokeWidth=3;strokeColor=#64BBE2;html=1;" parent="1" source="1350" target="1374" edge="1">
          <mxGeometry x="-221.5" y="56.5" width="100" height="100" as="geometry">
            <mxPoint x="-131.5" y="280" as="sourcePoint" />
            <mxPoint x="-31.5" y="180" as="targetPoint" />
          </mxGeometry>
        </mxCell>
        <mxCell id="acqs4JBvhIZbfSe7umoF-1562" style="edgeStyle=orthogonalEdgeStyle;rounded=0;orthogonalLoop=1;jettySize=auto;html=1;exitX=0.5;exitY=0;exitDx=0;exitDy=0;entryX=0.5;entryY=1;entryDx=0;entryDy=0;" edge="1" parent="1" source="1392" target="acqs4JBvhIZbfSe7umoF-1554">
          <mxGeometry relative="1" as="geometry" />
        </mxCell>
        <mxCell id="acqs4JBvhIZbfSe7umoF-1563" style="edgeStyle=orthogonalEdgeStyle;rounded=0;orthogonalLoop=1;jettySize=auto;html=1;exitX=0.5;exitY=0;exitDx=0;exitDy=0;entryX=0.5;entryY=1;entryDx=0;entryDy=0;" edge="1" parent="1" source="1392" target="acqs4JBvhIZbfSe7umoF-1556">
          <mxGeometry relative="1" as="geometry" />
        </mxCell>
        <mxCell id="1392" value="依恋理论：&lt;br&gt;焦虑型、回避型、安全型" style="rounded=1;fillColor=#dae8fc;strokeColor=#6c8ebf;strokeWidth=3;shadow=0;html=1;" parent="1" vertex="1">
          <mxGeometry x="940" y="81.5" width="190" height="58.5" as="geometry" />
        </mxCell>
        <mxCell id="1393" value="Ladybug" style="rounded=1;fillColor=#f5af58;strokeColor=none;strokeWidth=3;shadow=0;html=1;fontColor=#FFFFFF;" parent="1" vertex="1">
          <mxGeometry x="1163.5" y="81.5" width="120" height="40" as="geometry" />
        </mxCell>
        <mxCell id="1404" value="" style="edgeStyle=none;endArrow=none;strokeWidth=3;strokeColor=#F5AF58;html=1;" parent="1" source="1351" target="1392" edge="1">
          <mxGeometry x="3.5" y="21.5" width="100" height="100" as="geometry">
            <mxPoint x="3.5" y="121.5" as="sourcePoint" />
            <mxPoint x="103.5" y="21.5" as="targetPoint" />
          </mxGeometry>
        </mxCell>
        <mxCell id="1405" value="" style="edgeStyle=none;endArrow=none;strokeWidth=3;strokeColor=#F5AF58;html=1;" parent="1" source="1351" target="1393" edge="1">
          <mxGeometry x="3.5" y="21.5" width="100" height="100" as="geometry">
            <mxPoint x="3.5" y="121.5" as="sourcePoint" />
            <mxPoint x="103.5" y="21.5" as="targetPoint" />
          </mxGeometry>
        </mxCell>
        <mxCell id="1416" value="《认知神经科学》" style="rounded=1;fillColor=#f8cecc;strokeColor=#b85450;strokeWidth=3;shadow=0;html=1;" parent="1" vertex="1">
          <mxGeometry x="1520" y="230" width="120" height="40" as="geometry" />
        </mxCell>
        <mxCell id="1427" value="" style="edgeStyle=none;endArrow=none;strokeWidth=3;strokeColor=#F08E81;html=1;" parent="1" source="1352" target="1416" edge="1">
          <mxGeometry x="31" y="106.5" width="100" height="100" as="geometry">
            <mxPoint x="31" y="206.5" as="sourcePoint" />
            <mxPoint x="131" y="106.5" as="targetPoint" />
          </mxGeometry>
        </mxCell>
        <mxCell id="1515" value="心理学" style="ellipse;whiteSpace=wrap;html=1;shadow=0;fontFamily=Helvetica;fontSize=30;fontColor=#2F5B7C;align=center;strokeColor=#2F5B7C;strokeWidth=6;fillColor=#FFFFFF;fontStyle=1;gradientColor=none;" parent="1" vertex="1">
          <mxGeometry x="961" y="676.5" width="270" height="270" as="geometry" />
        </mxCell>
        <mxCell id="acqs4JBvhIZbfSe7umoF-1571" style="edgeStyle=orthogonalEdgeStyle;rounded=0;orthogonalLoop=1;jettySize=auto;html=1;exitX=0.5;exitY=0;exitDx=0;exitDy=0;entryX=0.5;entryY=1;entryDx=0;entryDy=0;" edge="1" parent="1" source="acqs4JBvhIZbfSe7umoF-1542" target="acqs4JBvhIZbfSe7umoF-1570">
          <mxGeometry relative="1" as="geometry">
            <Array as="points">
              <mxPoint x="225" y="230" />
              <mxPoint x="115" y="230" />
            </Array>
          </mxGeometry>
        </mxCell>
        <mxCell id="acqs4JBvhIZbfSe7umoF-1572" style="edgeStyle=orthogonalEdgeStyle;rounded=0;orthogonalLoop=1;jettySize=auto;html=1;exitX=0.5;exitY=0;exitDx=0;exitDy=0;entryX=0.5;entryY=1;entryDx=0;entryDy=0;" edge="1" parent="1" source="acqs4JBvhIZbfSe7umoF-1542" target="acqs4JBvhIZbfSe7umoF-1567">
          <mxGeometry relative="1" as="geometry" />
        </mxCell>
        <mxCell id="acqs4JBvhIZbfSe7umoF-1573" style="edgeStyle=orthogonalEdgeStyle;rounded=0;orthogonalLoop=1;jettySize=auto;html=1;exitX=0.5;exitY=0;exitDx=0;exitDy=0;" edge="1" parent="1" source="acqs4JBvhIZbfSe7umoF-1542" target="acqs4JBvhIZbfSe7umoF-1565">
          <mxGeometry relative="1" as="geometry">
            <Array as="points">
              <mxPoint x="225" y="230" />
              <mxPoint x="325" y="230" />
            </Array>
          </mxGeometry>
        </mxCell>
        <mxCell id="acqs4JBvhIZbfSe7umoF-1576" style="edgeStyle=orthogonalEdgeStyle;rounded=0;orthogonalLoop=1;jettySize=auto;html=1;exitX=0.5;exitY=0;exitDx=0;exitDy=0;entryX=0.5;entryY=1;entryDx=0;entryDy=0;" edge="1" parent="1" source="acqs4JBvhIZbfSe7umoF-1542" target="acqs4JBvhIZbfSe7umoF-1574">
          <mxGeometry relative="1" as="geometry" />
        </mxCell>
        <mxCell id="acqs4JBvhIZbfSe7umoF-1542" value="个体心理学：目的论" style="rounded=1;fillColor=#dae8fc;strokeColor=#6c8ebf;strokeWidth=3;shadow=0;html=1;" vertex="1" parent="1">
          <mxGeometry x="160" y="437" width="130" height="40" as="geometry" />
        </mxCell>
        <mxCell id="acqs4JBvhIZbfSe7umoF-1546" value="精神分析：原因论" style="rounded=1;fillColor=#dae8fc;strokeColor=#6c8ebf;strokeWidth=3;shadow=0;html=1;" vertex="1" parent="1">
          <mxGeometry x="608.5" y="700" width="130" height="40" as="geometry" />
        </mxCell>
        <mxCell id="acqs4JBvhIZbfSe7umoF-1597" value="" style="edgeStyle=orthogonalEdgeStyle;rounded=0;orthogonalLoop=1;jettySize=auto;html=1;" edge="1" parent="1" source="acqs4JBvhIZbfSe7umoF-1551" target="acqs4JBvhIZbfSe7umoF-1596">
          <mxGeometry relative="1" as="geometry" />
        </mxCell>
        <mxCell id="acqs4JBvhIZbfSe7umoF-1551" value="积极心理学" style="rounded=1;fillColor=#dae8fc;strokeColor=#6c8ebf;strokeWidth=3;shadow=0;html=1;" vertex="1" parent="1">
          <mxGeometry x="608.5" y="190" width="130" height="40" as="geometry" />
        </mxCell>
        <mxCell id="acqs4JBvhIZbfSe7umoF-1554" value="《依恋与亲密关系》" style="rounded=1;fillColor=#f8cecc;strokeColor=#b85450;strokeWidth=3;shadow=0;html=1;" vertex="1" parent="1">
          <mxGeometry x="908.5" y="-40" width="110" height="40" as="geometry" />
        </mxCell>
        <mxCell id="acqs4JBvhIZbfSe7umoF-1556" value="《读懂恋人心》" style="rounded=1;fillColor=#f8cecc;strokeColor=#b85450;strokeWidth=3;shadow=0;html=1;" vertex="1" parent="1">
          <mxGeometry x="1038.5" y="-40" width="110" height="40" as="geometry" />
        </mxCell>
        <mxCell id="acqs4JBvhIZbfSe7umoF-1565" value="《自卑与超越》" style="rounded=1;fillColor=#f8cecc;strokeColor=#b85450;strokeWidth=3;shadow=0;html=1;" vertex="1" parent="1">
          <mxGeometry x="270" y="160" width="110" height="40" as="geometry" />
        </mxCell>
        <mxCell id="acqs4JBvhIZbfSe7umoF-1567" value="《像阿德勒一样思考和生活》" style="rounded=1;fillColor=#d5e8d4;strokeColor=#82b366;strokeWidth=3;shadow=0;html=1;" vertex="1" parent="1">
          <mxGeometry x="150" y="90.75" width="150" height="40" as="geometry" />
        </mxCell>
        <mxCell id="acqs4JBvhIZbfSe7umoF-1570" value="《被讨厌的勇气》" style="rounded=1;fillColor=#d5e8d4;strokeColor=#82b366;strokeWidth=3;shadow=0;html=1;" vertex="1" parent="1">
          <mxGeometry x="60" y="160" width="110" height="40" as="geometry" />
        </mxCell>
        <mxCell id="acqs4JBvhIZbfSe7umoF-1574" value="《理解人性》" style="rounded=1;fillColor=#f8cecc;strokeColor=#b85450;strokeWidth=3;shadow=0;html=1;" vertex="1" parent="1">
          <mxGeometry x="50" y="263.5" width="110" height="40" as="geometry" />
        </mxCell>
        <mxCell id="acqs4JBvhIZbfSe7umoF-1582" value="" style="edgeStyle=orthogonalEdgeStyle;rounded=0;orthogonalLoop=1;jettySize=auto;html=1;" edge="1" parent="1" source="acqs4JBvhIZbfSe7umoF-1578" target="acqs4JBvhIZbfSe7umoF-1581">
          <mxGeometry relative="1" as="geometry" />
        </mxCell>
        <mxCell id="acqs4JBvhIZbfSe7umoF-1578" value="&lt;font style=&quot;font-size: 16px;&quot;&gt;&lt;b&gt;艾瑞克·伯恩&lt;/b&gt;&lt;/font&gt;" style="rounded=1;fillColor=#647687;strokeColor=#314354;strokeWidth=3;shadow=0;html=1;fontColor=#ffffff;" vertex="1" parent="1">
          <mxGeometry x="350" y="573.5" width="130" height="40" as="geometry" />
        </mxCell>
        <mxCell id="acqs4JBvhIZbfSe7umoF-1580" value="" style="edgeStyle=none;endArrow=none;strokeWidth=3;strokeColor=#64BBE2;html=1;exitX=0.071;exitY=0.8;exitDx=0;exitDy=0;exitPerimeter=0;entryX=1;entryY=0.5;entryDx=0;entryDy=0;" edge="1" parent="1" source="1350" target="acqs4JBvhIZbfSe7umoF-1578">
          <mxGeometry x="-221.5" y="56.5" width="100" height="100" as="geometry">
            <mxPoint x="585" y="699.7" as="sourcePoint" />
            <mxPoint x="441" y="701.7" as="targetPoint" />
          </mxGeometry>
        </mxCell>
        <mxCell id="acqs4JBvhIZbfSe7umoF-1584" value="" style="edgeStyle=orthogonalEdgeStyle;rounded=0;orthogonalLoop=1;jettySize=auto;html=1;" edge="1" parent="1" source="acqs4JBvhIZbfSe7umoF-1581" target="acqs4JBvhIZbfSe7umoF-1583">
          <mxGeometry relative="1" as="geometry" />
        </mxCell>
        <mxCell id="acqs4JBvhIZbfSe7umoF-1588" style="edgeStyle=orthogonalEdgeStyle;rounded=0;orthogonalLoop=1;jettySize=auto;html=1;exitX=0.5;exitY=1;exitDx=0;exitDy=0;entryX=0.5;entryY=0;entryDx=0;entryDy=0;" edge="1" parent="1" source="acqs4JBvhIZbfSe7umoF-1581" target="acqs4JBvhIZbfSe7umoF-1585">
          <mxGeometry relative="1" as="geometry" />
        </mxCell>
        <mxCell id="acqs4JBvhIZbfSe7umoF-1581" value="沟通分析：结构、游戏" style="rounded=1;fillColor=#dae8fc;strokeColor=#6c8ebf;strokeWidth=3;shadow=0;html=1;" vertex="1" parent="1">
          <mxGeometry x="160" y="573.5" width="130" height="40" as="geometry" />
        </mxCell>
        <mxCell id="acqs4JBvhIZbfSe7umoF-1583" value="《人间游戏》" style="rounded=1;fillColor=#d5e8d4;strokeColor=#82b366;strokeWidth=3;shadow=0;html=1;" vertex="1" parent="1">
          <mxGeometry x="60" y="680" width="130" height="40" as="geometry" />
        </mxCell>
        <mxCell id="acqs4JBvhIZbfSe7umoF-1585" value="《人生脚本》" style="rounded=1;fillColor=#d5e8d4;strokeColor=#82b366;strokeWidth=3;shadow=0;html=1;" vertex="1" parent="1">
          <mxGeometry x="250" y="680" width="130" height="40" as="geometry" />
        </mxCell>
        <mxCell id="acqs4JBvhIZbfSe7umoF-1592" value="" style="edgeStyle=orthogonalEdgeStyle;rounded=0;orthogonalLoop=1;jettySize=auto;html=1;" edge="1" parent="1" source="acqs4JBvhIZbfSe7umoF-1589" target="acqs4JBvhIZbfSe7umoF-1591">
          <mxGeometry relative="1" as="geometry" />
        </mxCell>
        <mxCell id="acqs4JBvhIZbfSe7umoF-1595" style="edgeStyle=orthogonalEdgeStyle;rounded=0;orthogonalLoop=1;jettySize=auto;html=1;exitX=0.5;exitY=0;exitDx=0;exitDy=0;entryX=0.5;entryY=1;entryDx=0;entryDy=0;" edge="1" parent="1" source="acqs4JBvhIZbfSe7umoF-1589" target="acqs4JBvhIZbfSe7umoF-1593">
          <mxGeometry relative="1" as="geometry" />
        </mxCell>
        <mxCell id="acqs4JBvhIZbfSe7umoF-1589" value="&lt;font style=&quot;font-size: 16px;&quot;&gt;&lt;b&gt;泰勒·本·沙哈尔&lt;/b&gt;&lt;/font&gt;" style="rounded=1;fillColor=#008a00;strokeColor=#005700;strokeWidth=3;shadow=0;html=1;fontColor=#ffffff;" vertex="1" parent="1">
          <mxGeometry x="818.5" y="263.5" width="130" height="40" as="geometry" />
        </mxCell>
        <mxCell id="acqs4JBvhIZbfSe7umoF-1591" value="《哈佛幸福课》" style="rounded=1;fillColor=#d5e8d4;strokeColor=#82b366;strokeWidth=3;shadow=0;html=1;" vertex="1" parent="1">
          <mxGeometry x="770" y="190" width="100" height="40" as="geometry" />
        </mxCell>
        <mxCell id="acqs4JBvhIZbfSe7umoF-1593" value="《幸福的方法》" style="rounded=1;fillColor=#f8cecc;strokeColor=#b85450;strokeWidth=3;shadow=0;html=1;" vertex="1" parent="1">
          <mxGeometry x="900" y="190" width="100" height="40" as="geometry" />
        </mxCell>
        <mxCell id="acqs4JBvhIZbfSe7umoF-1596" value="《塞利格曼自传》" style="rounded=1;fillColor=#f8cecc;strokeColor=#b85450;strokeWidth=3;shadow=0;html=1;" vertex="1" parent="1">
          <mxGeometry x="608.5" y="110" width="130" height="40" as="geometry" />
        </mxCell>
        <mxCell id="acqs4JBvhIZbfSe7umoF-1600" value="" style="edgeStyle=none;endArrow=none;strokeWidth=3;strokeColor=#64BBE2;html=1;exitX=0;exitY=0;exitDx=0;exitDy=0;entryX=1;entryY=0.5;entryDx=0;entryDy=0;" edge="1" parent="1" source="1350" target="acqs4JBvhIZbfSe7umoF-1601">
          <mxGeometry x="-221.5" y="56.5" width="100" height="100" as="geometry">
            <mxPoint x="609" y="389.7" as="sourcePoint" />
            <mxPoint x="530" y="370" as="targetPoint" />
          </mxGeometry>
        </mxCell>
        <mxCell id="acqs4JBvhIZbfSe7umoF-1607" value="" style="edgeStyle=orthogonalEdgeStyle;rounded=0;orthogonalLoop=1;jettySize=auto;html=1;" edge="1" parent="1" source="acqs4JBvhIZbfSe7umoF-1601" target="acqs4JBvhIZbfSe7umoF-1606">
          <mxGeometry relative="1" as="geometry" />
        </mxCell>
        <mxCell id="acqs4JBvhIZbfSe7umoF-1601" value="&lt;font style=&quot;font-size: 16px;&quot;&gt;&lt;b&gt;李玫瑾&lt;/b&gt;&lt;/font&gt;" style="rounded=1;fillColor=#008a00;strokeColor=#005700;strokeWidth=3;shadow=0;html=1;fontColor=#ffffff;" vertex="1" parent="1">
          <mxGeometry x="410" y="330" width="130" height="40" as="geometry" />
        </mxCell>
        <mxCell id="acqs4JBvhIZbfSe7umoF-1603" value="未阅读或已遗忘书籍" style="rounded=0;whiteSpace=wrap;html=1;fillColor=#f8cecc;strokeColor=#b85450;" vertex="1" parent="1">
          <mxGeometry x="1540" y="-80" width="120" height="40" as="geometry" />
        </mxCell>
        <mxCell id="acqs4JBvhIZbfSe7umoF-1604" value="已阅读书籍" style="rounded=0;whiteSpace=wrap;html=1;fillColor=#d5e8d4;strokeColor=#82b366;" vertex="1" parent="1">
          <mxGeometry x="1540" y="-130" width="120" height="40" as="geometry" />
        </mxCell>
        <mxCell id="acqs4JBvhIZbfSe7umoF-1605" value="图例：" style="text;html=1;strokeColor=none;fillColor=none;align=center;verticalAlign=middle;whiteSpace=wrap;rounded=0;" vertex="1" parent="1">
          <mxGeometry x="1500" y="-160" width="60" height="30" as="geometry" />
        </mxCell>
        <mxCell id="acqs4JBvhIZbfSe7umoF-1609" style="edgeStyle=orthogonalEdgeStyle;rounded=0;orthogonalLoop=1;jettySize=auto;html=1;exitX=0.5;exitY=0;exitDx=0;exitDy=0;entryX=0.5;entryY=1;entryDx=0;entryDy=0;" edge="1" parent="1" source="acqs4JBvhIZbfSe7umoF-1606" target="acqs4JBvhIZbfSe7umoF-1608">
          <mxGeometry relative="1" as="geometry" />
        </mxCell>
        <mxCell id="acqs4JBvhIZbfSe7umoF-1611" style="edgeStyle=orthogonalEdgeStyle;rounded=0;orthogonalLoop=1;jettySize=auto;html=1;exitX=0.5;exitY=0;exitDx=0;exitDy=0;entryX=0.5;entryY=1;entryDx=0;entryDy=0;" edge="1" parent="1" source="acqs4JBvhIZbfSe7umoF-1606" target="acqs4JBvhIZbfSe7umoF-1610">
          <mxGeometry relative="1" as="geometry" />
        </mxCell>
        <mxCell id="acqs4JBvhIZbfSe7umoF-1606" value="&lt;font size=&quot;1&quot; style=&quot;&quot;&gt;犯罪心理学&lt;/font&gt;" style="rounded=1;fillColor=#dae8fc;strokeColor=#6c8ebf;strokeWidth=3;shadow=0;html=1;" vertex="1" parent="1">
          <mxGeometry x="410" y="250" width="130" height="40" as="geometry" />
        </mxCell>
        <mxCell id="acqs4JBvhIZbfSe7umoF-1608" value="《心理抚养》" style="rounded=1;fillColor=#d5e8d4;strokeColor=#82b366;strokeWidth=3;shadow=0;html=1;" vertex="1" parent="1">
          <mxGeometry x="380" y="90.75" width="80" height="40" as="geometry" />
        </mxCell>
        <mxCell id="acqs4JBvhIZbfSe7umoF-1610" value="《幽微的人性》" style="rounded=1;fillColor=#d5e8d4;strokeColor=#82b366;strokeWidth=3;shadow=0;html=1;" vertex="1" parent="1">
          <mxGeometry x="480" y="90.75" width="80" height="40" as="geometry" />
        </mxCell>
        <mxCell id="acqs4JBvhIZbfSe7umoF-1612" value="人物离世" style="rounded=0;whiteSpace=wrap;html=1;fillColor=#647687;strokeColor=#314354;fontColor=#ffffff;" vertex="1" parent="1">
          <mxGeometry x="1540" y="50.75" width="120" height="40" as="geometry" />
        </mxCell>
        <mxCell id="acqs4JBvhIZbfSe7umoF-1613" value="人物在世" style="rounded=0;whiteSpace=wrap;html=1;fillColor=#008a00;strokeColor=#005700;fontColor=#ffffff;" vertex="1" parent="1">
          <mxGeometry x="1540" y="-10" width="120" height="40" as="geometry" />
        </mxCell>
        <mxCell id="acqs4JBvhIZbfSe7umoF-1618" value="心理咨询" style="ellipse;whiteSpace=wrap;html=1;shadow=0;fontFamily=Helvetica;fontSize=20;fontColor=#FFFFFF;align=center;strokeWidth=3;fillColor=#7EA6E0;strokeColor=none;gradientColor=none;" vertex="1" parent="1">
          <mxGeometry x="618.5" y="850" width="120" height="120" as="geometry" />
        </mxCell>
        <mxCell id="acqs4JBvhIZbfSe7umoF-1619" style="endArrow=none;strokeWidth=6;strokeColor=#7EA6E0;html=1;entryX=1;entryY=0.5;entryDx=0;entryDy=0;" edge="1" parent="1" target="acqs4JBvhIZbfSe7umoF-1618">
          <mxGeometry relative="1" as="geometry">
            <mxPoint x="960" y="840" as="sourcePoint" />
            <mxPoint x="700" y="890" as="targetPoint" />
          </mxGeometry>
        </mxCell>
      </root>
    </mxGraphModel>
  </diagram>
</mxfile>
